<svg xmlns="http://www.w3.org/2000/svg" xmlns:xlink="http://www.w3.org/1999/xlink" viewBox="0 0 1366.26 1086.74"><defs><style>.cls-1{fill:url(#linear-gradient);}.cls-2{fill:url(#radial-gradient);}.cls-3{fill:url(#linear-gradient-2);}.cls-4{fill:url(#linear-gradient-3);}.cls-5{fill:none;}.cls-6{fill:url(#linear-gradient-4);}.cls-7{fill:url(#linear-gradient-5);}.cls-8{fill:url(#linear-gradient-6);}.cls-9{fill:url(#linear-gradient-7);}.cls-10{fill:url(#linear-gradient-8);}.cls-11{fill:url(#linear-gradient-9);}.cls-12{fill:url(#linear-gradient-10);}.cls-13{fill:url(#linear-gradient-11);}.cls-14{fill:url(#linear-gradient-12);}.cls-15{fill:url(#linear-gradient-13);}.cls-16{fill:url(#linear-gradient-14);}</style><linearGradient id="linear-gradient" x1="361.97" y1="698.79" x2="994.88" y2="698.79" gradientUnits="userSpaceOnUse"><stop offset="0" stop-color="#f4e07f"/><stop offset="0.23" stop-color="#f1d876"/><stop offset="0.61" stop-color="#eac35c"/><stop offset="1" stop-color="#e1a93c"/></linearGradient><radialGradient id="radial-gradient" cx="682.9" cy="314.66" r="105.39" gradientTransform="translate(422.51 -390.72) rotate(45)" xlink:href="#linear-gradient"/><linearGradient id="linear-gradient-2" x1="368.05" y1="209.42" x2="994.88" y2="209.42" gradientUnits="userSpaceOnUse"><stop offset="0" stop-color="#f4e07f"/><stop offset="0.23" stop-color="#f1d876"/><stop offset="0.61" stop-color="#eac35c"/><stop offset="0.99" stop-color="#e1a93c"/></linearGradient><linearGradient id="linear-gradient-3" x1="368.05" y1="200.35" x2="994.88" y2="200.35" gradientUnits="userSpaceOnUse"><stop offset="0" stop-color="#f4e07f"/><stop offset="0.12" stop-color="#f1d876"/><stop offset="0.32" stop-color="#eac35c"/><stop offset="0.52" stop-color="#e1a93c"/></linearGradient><linearGradient id="linear-gradient-4" x1="386.48" y1="576.21" x2="626.2" y2="576.21" gradientUnits="userSpaceOnUse"><stop offset="0" stop-color="#e1a93c"/><stop offset="0.13" stop-color="#e9bf57"/><stop offset="0.3" stop-color="#f4e07f"/><stop offset="0.46" stop-color="#f1d876"/><stop offset="0.73" stop-color="#eac35c"/><stop offset="1" stop-color="#e1a93c"/></linearGradient><linearGradient id="linear-gradient-5" x1="762.16" y1="757.54" x2="852.43" y2="757.54" xlink:href="#linear-gradient"/><linearGradient id="linear-gradient-6" x1="368.05" y1="-139.53" x2="994.88" y2="-139.53" gradientTransform="matrix(1, 0, 0, -1, 0, 271.69)" xlink:href="#linear-gradient-2"/><linearGradient id="linear-gradient-7" x1="368.05" y1="-148.6" x2="994.88" y2="-148.6" gradientTransform="matrix(1, 0, 0, -1, 0, 271.69)" xlink:href="#linear-gradient-3"/><linearGradient id="linear-gradient-8" x1="0" y1="13.19" x2="1366.26" y2="13.19" xlink:href="#linear-gradient-3"/><linearGradient id="linear-gradient-9" x1="0" y1="282.39" x2="378.41" y2="282.39" xlink:href="#linear-gradient-2"/><linearGradient id="linear-gradient-10" x1="46.78" y1="429.66" x2="1320.01" y2="429.66" xlink:href="#linear-gradient-2"/><linearGradient id="linear-gradient-11" x1="806.97" y1="445.17" x2="1366.26" y2="445.17" xlink:href="#linear-gradient-2"/><linearGradient id="linear-gradient-12" x1="682.44" y1="1033.23" x2="719.71" y2="1033.23" xlink:href="#linear-gradient"/><linearGradient id="linear-gradient-13" x1="472.51" y1="913.18" x2="683.24" y2="913.18" xlink:href="#linear-gradient-2"/><linearGradient id="linear-gradient-14" x1="495.53" y1="880.02" x2="719.64" y2="880.02" xlink:href="#linear-gradient-2"/></defs><g id="Layer_2" data-name="Layer 2"><g id="Layer_3" data-name="Layer 3"><path class="cls-1" d="M833.66,617.38c19.88-23.45,34.56-49.45,40.34-80a89.42,89.42,0,0,0,1.2-26,24.58,24.58,0,0,0-48-4.7c-1.58,5.19-1.84,10.8-2.48,16.25-3.14,27.13-17.1,48.43-37.9,66.59,0-33.4-.16-66.79.11-100.19.06-8.4,3.77-15.95,8.22-23,18.76-17.27,21-17.52,29.26-23.88a272.28,272.28,0,0,0,54-51.77,64.58,64.58,0,0,1,15.33-14.16,49.91,49.91,0,0,1,27.79-8.11l68.22.34a5.14,5.14,0,0,0,5.13-5.14V336.4a5.13,5.13,0,0,0-5.13-5.13H892.93s-15.08.39-30.15,14.67C847.91,360,799.55,446.67,681.53,449c-118-2.37-166.51-89-181.38-103.1C485.07,331.66,470,331.27,470,331.27H373.18a5.13,5.13,0,0,0-5.13,5.13v27.16a5.14,5.14,0,0,0,5.13,5.14l68.22-.34a49.93,49.93,0,0,1,27.79,8.11,64.77,64.77,0,0,1,15.33,14.16,266.86,266.86,0,0,0,37.25,38.58l2.11,2c14.53,13.52,31.83,23.13,48.36,33.76,15.58,10,19.85,23.8,16.58,41.44-7.17,38.7-23.52,73.23-47,104.35-15.92,21.14-33.41,38.12-56.21,51.56-10.68,6.3-25.32,7.71-37.2,8.43-16.24,1-28.21-6.9-33.59-21C410,637,413.92,621.45,424.27,612c4.21-3.85,9-6.36,14.77-6.33,3.92,0,6.11,1.91,4.32,6.19-.71,1.68-1.71,3.25-2.35,5-4,10.59-1.72,19.89,6.42,27.55,7.92,7.46,19,8.37,29.33,2.79s16.21-14.65,19.06-25.72c7.51-29.22-14.58-61.53-45-65.47-31.18-4-55.21,8.06-73.4,33.29-34.19,47.44-8.33,116.64,45.94,128.77,27.76,6.2,54.68,3.29,79.92-10.39C538.11,688.75,567,663,589,630c13.72-20.56,26.29-41.88,39.53-62.75,8.35-13.17,17.1-26.12,28.43-36.94,18.24-17.41,38.24-15,51.82,5.95,8.62,13.28,13.3,28,16.24,43.46,8.64,45.61,12.1,91.59,12,138-.18,94.38.27,188.77.57,283.15,0,13.73.3,27.49,1.1,41.19s11.1,23.78,23.47,24.2,23.08-9.13,24.83-22.83c.7-5.43.49-11,.48-16.47-.2-103.09-.09-206.18-.92-309.26-.18-22.48,5.67-42.32,17-61.17C812.13,642.35,823,630,833.66,617.38Z"/><circle class="cls-2" cx="682.9" cy="314.66" r="105.39" transform="translate(-22.48 575.05) rotate(-45)"/><path class="cls-3" d="M862.78,274.7c15.07,14.28,30.15,14.68,30.15,14.68h96.82a5.13,5.13,0,0,0,5.13-5.13V257.08a5.13,5.13,0,0,0-5.13-5.13l-68.22.33a49.9,49.9,0,0,1-27.79-8.1A64.58,64.58,0,0,1,878.41,230C864.46,212.14,798,132,681.53,129.46,565.06,132,498.47,212.14,484.52,230a64.77,64.77,0,0,1-15.33,14.16,49.92,49.92,0,0,1-27.79,8.1L373.18,252a5.13,5.13,0,0,0-5.13,5.13v27.17a5.13,5.13,0,0,0,5.13,5.13H470s15.07-.4,30.15-14.68C515,260.62,563.5,174,681.53,171.6,799.55,174,847.91,260.62,862.78,274.7Z"/><path class="cls-4" d="M916,270.76c-30.52.4-40.28-12.08-47.78-22.08-3.47-4.63-6.42-8.71-9.85-13-19.86-24.81-93-85.51-178.61-85.51-104.24,0-176.91,90.37-184.66,102A32.83,32.83,0,0,1,485.5,261,60,60,0,0,1,453,270.25H368.05V257.08a5.13,5.13,0,0,1,5.13-5.13l68.22.33a49.92,49.92,0,0,0,27.79-8.1A64.77,64.77,0,0,0,484.52,230c14-17.88,80.54-98,197-100.56C798,132,864.46,212.14,878.41,230a64.58,64.58,0,0,0,15.33,14.16,49.9,49.9,0,0,0,27.79,8.1l68.22-.33a5.13,5.13,0,0,1,5.13,5.13v14.16Z"/><path class="cls-5" d="M994.88,271.24v13a5.13,5.13,0,0,1-5.13,5.13H892.93s-15.08-.4-30.15-14.68C847.91,260.62,799.55,174,681.53,171.6c-118,2.38-166.51,89-181.38,103.1C485.07,289,470,289.38,470,289.38H373.18a5.13,5.13,0,0,1-5.13-5.13v-14h96.8s24.77-7.5,30.27-18.08,89.78-105.95,184.66-102,166.28,68.66,188.46,98.5c0,0,7.51,21.38,47.1,22.12S994.88,271.24,994.88,271.24Z"/><path class="cls-5" d="M994.88,271.24v13a5.13,5.13,0,0,1-5.13,5.13H892.93s-15.08-.4-30.15-14.68C847.91,260.62,799.55,174,681.53,171.6c-118,2.38-166.51,89-181.38,103.1C485.07,289,470,289.38,470,289.38H373.18a5.13,5.13,0,0,1-5.13-5.13v-14h96.8s24.77-7.5,30.27-18.08,89.78-105.95,184.66-102,166.28,68.66,188.46,98.5c0,0,7.51,21.38,47.1,22.12S994.88,271.24,994.88,271.24Z"/><path class="cls-6" d="M623.87,483.16a3.93,3.93,0,0,1,2.22,4.5C619.73,514.24,571,698.12,440,691.34c0,0-54.15-2.43-53.54-56.58.58-52.21,52.08-58,55.76-58.39a3,3,0,0,1,.42,0c3,0,39,1.18,30.21,28l-7.23,22.91-.15.4-8,18a3.91,3.91,0,0,1-5.67,1.74c-6.9-4.41-19.4-15.82-8.37-36.35a3.84,3.84,0,0,0,0-3.8c-1.44-2.3-5.93-3.92-19.92,6.18C402.24,628.84,416,674.73,448.4,671s78-19.19,126.43-117.45c0-.07.06,0,.09-.12,1.13-2.71,15.49-38.49,13.49-67.95-.2-2.91-2-5.94-3.17-7.66-2.71-3.92-14.67-14.53-17.14-16.82-.69-.63,15,5.66,16.2,4.61Z"/><path class="cls-7" d="M762.16,1066.29V470.72l52.57-21.94-19.54,17.5s-8.22,11.18-8.22,23-.11,100.19-.11,100.19,28.76-24.09,33.91-47.59,3.51-24.47,6.47-35.25S841,488.89,851.38,489.2c0,0,4.79,37.29-6,55.44s-22,44.35-57.26,81L786.89,734.2l.1,309.26S786.65,1064.33,762.16,1066.29Z"/><path class="cls-8" d="M862.78,345.94c15.07-14.28,30.15-14.67,30.15-14.67h96.82a5.13,5.13,0,0,1,5.13,5.13v27.16a5.14,5.14,0,0,1-5.13,5.14l-68.22-.34a49.91,49.91,0,0,0-27.79,8.11,64.58,64.58,0,0,0-15.33,14.16c-13.95,17.87-80.42,98-196.88,100.56-116.47-2.53-183.06-82.69-197-100.56a64.77,64.77,0,0,0-15.33-14.16,49.93,49.93,0,0,0-27.79-8.11l-68.22.34a5.14,5.14,0,0,1-5.13-5.14V336.4a5.13,5.13,0,0,1,5.13-5.13H470s15.07.39,30.15,14.67C515,360,563.5,446.67,681.53,449,799.55,446.67,847.91,360,862.78,345.94Z"/><path class="cls-5" d="M994.88,349.41v-13a5.13,5.13,0,0,0-5.13-5.13H892.93s-15.08.39-30.15,14.67C847.91,360,799.55,446.67,681.53,449c-118-2.37-166.51-89-181.38-103.1C485.07,331.66,470,331.27,470,331.27H373.18a5.13,5.13,0,0,0-5.13,5.13v14h96.8s24.77,7.49,30.27,18.08,89.78,105.94,184.66,102S846.06,401.81,868.24,372c0,0,7.51-21.39,47.1-22.13S994.88,349.41,994.88,349.41Z"/><path class="cls-5" d="M994.88,349.41v-13a5.13,5.13,0,0,0-5.13-5.13H892.93s-15.08.39-30.15,14.67C847.91,360,799.55,446.67,681.53,449c-118-2.37-166.51-89-181.38-103.1C485.07,331.66,470,331.27,470,331.27H373.18a5.13,5.13,0,0,0-5.13,5.13v14h96.8s24.77,7.49,30.27,18.08,89.78,105.94,184.66,102S846.06,401.81,868.24,372c0,0,7.51-21.39,47.1-22.13S994.88,349.41,994.88,349.41Z"/><path class="cls-9" d="M916,349.88C885.5,349.49,875.74,362,868.24,372c-3.47,4.62-6.42,8.71-9.85,13-19.86,24.81-93,85.51-178.61,85.51-104.24,0-176.91-90.37-184.66-102a32.83,32.83,0,0,0-9.62-8.82A60,60,0,0,0,453,350.4H368.05v13.16a5.14,5.14,0,0,0,5.13,5.14l68.22-.34a49.93,49.93,0,0,1,27.79,8.11,64.77,64.77,0,0,1,15.33,14.16c14,17.87,80.54,98,197,100.56C798,488.66,864.46,408.5,878.41,390.63a64.58,64.58,0,0,1,15.33-14.16,49.91,49.91,0,0,1,27.79-8.11l68.22.34a5.14,5.14,0,0,0,5.13-5.14V349.41Z"/><polygon class="cls-10" points="0 0.11 46.78 26.39 1320.01 26.39 1366.26 0 0 0.11"/><polygon class="cls-11" points="0 0.11 46.78 26.39 378.41 550.8 354.31 564.66 0 0.11"/><polygon class="cls-12" points="46.78 26.39 378.41 550.8 402.31 536.99 99.37 55.07 1266.63 55.07 806.97 786.84 806.97 832.93 1320.01 26.39 46.78 26.39"/><polygon class="cls-13" points="1366.26 0 1320.01 26.39 806.97 832.93 806.97 890.33 1366.26 0"/><polygon class="cls-14" points="682.44 1034.83 683.24 1086.74 719.71 1029.5 719.64 979.72 682.44 1034.83"/><polygon class="cls-15" points="683.24 1086.74 472.51 752.7 495.53 739.61 682.44 1034.83 683.24 1086.74"/><polygon class="cls-16" points="495.53 739.61 520.52 725.22 683.08 983.71 719.52 925.9 719.64 979.72 682.44 1034.83 495.53 739.61"/></g></g></svg>