<svg width="171" height="40" viewBox="0 0 171 40" fill="none" xmlns="http://www.w3.org/2000/svg">
<path d="M19.9999 40C31.0456 40 39.9999 31.0457 39.9999 20C39.9999 8.9543 31.0456 0 19.9999 0C8.95418 0 -0.00012207 8.9543 -0.00012207 20C-0.00012207 31.0457 8.95418 40 19.9999 40Z" fill="white" fill-opacity="0.1"/>
<path d="M19.7927 9L19.6553 9.46718V23.0236L19.7927 23.1608L26.0855 19.4412L19.7927 9Z" fill="url(#paint0_linear_4_955)"/>
<path d="M19.7927 9L13.5 19.4412L19.7927 23.1608V16.581V9Z" fill="url(#paint1_linear_4_955)"/>
<path d="M19.7923 25.208L19.7148 25.3024V30.1315L19.7923 30.3577L26.0888 21.4902L19.7923 25.208Z" fill="url(#paint2_linear_4_955)"/>
<path d="M19.7927 30.3578V25.208L13.5 21.4902L19.7927 30.3578Z" fill="url(#paint3_linear_4_955)"/>
<path d="M19.793 23.1608L26.0856 19.4413L19.793 16.5811V23.1608Z" fill="url(#paint4_linear_4_955)"/>
<path d="M13.5 19.4413L19.7926 23.1609V16.5811L13.5 19.4413Z" fill="url(#paint5_linear_4_955)"/>
<path d="M52.62 19.8C52.62 18.9333 52.7733 18.08 53.08 17.24C53.4 16.3867 53.86 15.6267 54.46 14.96C55.06 14.2933 55.7933 13.7533 56.66 13.34C57.5267 12.9267 58.5133 12.72 59.62 12.72C60.9267 12.72 62.0533 13.0067 63 13.58C63.96 14.1533 64.6733 14.9 65.14 15.82L63.02 17.28C62.8333 16.88 62.6067 16.5467 62.34 16.28C62.0733 16 61.7867 15.78 61.48 15.62C61.1733 15.46 60.8533 15.3467 60.52 15.28C60.1867 15.2 59.86 15.16 59.54 15.16C58.8467 15.16 58.24 15.3 57.72 15.58C57.2133 15.86 56.7867 16.2267 56.44 16.68C56.1067 17.12 55.8533 17.6267 55.68 18.2C55.5067 18.76 55.42 19.32 55.42 19.88C55.42 20.5067 55.52 21.1133 55.72 21.7C55.92 22.2733 56.2 22.78 56.56 23.22C56.9333 23.66 57.3733 24.0133 57.88 24.28C58.4 24.5467 58.9667 24.68 59.58 24.68C59.9 24.68 60.2333 24.64 60.58 24.56C60.9267 24.48 61.2533 24.3533 61.56 24.18C61.88 24.0067 62.1733 23.7867 62.44 23.52C62.7067 23.24 62.92 22.9067 63.08 22.52L65.34 23.82C65.1133 24.3533 64.7867 24.8267 64.36 25.24C63.9467 25.64 63.4733 25.98 62.94 26.26C62.42 26.54 61.86 26.7533 61.26 26.9C60.66 27.0467 60.0733 27.12 59.5 27.12C58.4867 27.12 57.56 26.9067 56.72 26.48C55.88 26.0533 55.1533 25.5 54.54 24.82C53.94 24.1267 53.4667 23.3467 53.12 22.48C52.7867 21.6 52.62 20.7067 52.62 19.8ZM73.1709 18.84C72.3576 18.8533 71.6309 19.0133 70.9909 19.32C70.3509 19.6133 69.8909 20.06 69.6109 20.66V27H66.9309V16.52H69.3909V18.76C69.5776 18.4 69.7976 18.08 70.0509 17.8C70.3043 17.5067 70.5776 17.2533 70.8709 17.04C71.1643 16.8267 71.4576 16.6667 71.7509 16.56C72.0576 16.44 72.3509 16.38 72.6309 16.38C72.7776 16.38 72.8843 16.38 72.9509 16.38C73.0309 16.38 73.1043 16.3867 73.1709 16.4V18.84ZM74.8853 29.04C75.112 29.1067 75.332 29.1533 75.5453 29.18C75.7586 29.22 75.9386 29.24 76.0853 29.24C76.2586 29.24 76.4186 29.2067 76.5653 29.14C76.712 29.0733 76.8453 28.9533 76.9653 28.78C77.0853 28.62 77.2053 28.3933 77.3253 28.1C77.4453 27.8067 77.572 27.44 77.7053 27L73.5653 16.52H76.3253L79.1653 24.68L81.6853 16.52H84.2053L79.8053 29.08C79.552 29.8133 79.1186 30.4133 78.5053 30.88C77.892 31.3467 77.132 31.58 76.2253 31.58C76.012 31.58 75.792 31.56 75.5653 31.52C75.352 31.4933 75.1253 31.44 74.8853 31.36V29.04ZM91.9414 27.2C91.1147 27.2 90.3947 27.02 89.7814 26.66C89.1681 26.2867 88.6881 25.7867 88.3414 25.16V31.26H85.6614V16.52H88.0014V18.32C88.3881 17.7067 88.8881 17.2267 89.5014 16.88C90.1147 16.52 90.8214 16.34 91.6214 16.34C92.3281 16.34 92.9814 16.4867 93.5814 16.78C94.1814 17.06 94.6947 17.4467 95.1214 17.94C95.5614 18.42 95.9014 18.9933 96.1414 19.66C96.3947 20.3133 96.5214 21.0067 96.5214 21.74C96.5214 22.5 96.4081 23.2133 96.1814 23.88C95.9547 24.5467 95.6347 25.1267 95.2214 25.62C94.8214 26.1133 94.3414 26.5 93.7814 26.78C93.2214 27.06 92.6081 27.2 91.9414 27.2ZM91.0414 24.92C91.4414 24.92 91.8081 24.8333 92.1414 24.66C92.4881 24.4867 92.7814 24.2533 93.0214 23.96C93.2614 23.6667 93.4481 23.3267 93.5814 22.94C93.7147 22.5533 93.7814 22.1533 93.7814 21.74C93.7814 21.3 93.7081 20.8933 93.5614 20.52C93.4147 20.1333 93.2081 19.8 92.9414 19.52C92.6881 19.24 92.3814 19.02 92.0214 18.86C91.6747 18.7 91.2947 18.62 90.8814 18.62C90.6281 18.62 90.3681 18.6667 90.1014 18.76C89.8347 18.84 89.5881 18.96 89.3614 19.12C89.1347 19.28 88.9281 19.4667 88.7414 19.68C88.5681 19.8933 88.4347 20.1267 88.3414 20.38V22.84C88.5814 23.44 88.9481 23.94 89.4414 24.34C89.9347 24.7267 90.4681 24.92 91.0414 24.92ZM104.48 26.46C104.12 26.62 103.68 26.78 103.16 26.94C102.64 27.1 102.094 27.18 101.52 27.18C101.147 27.18 100.794 27.1333 100.46 27.04C100.14 26.9467 99.8538 26.8 99.6005 26.6C99.3605 26.3867 99.1671 26.12 99.0205 25.8C98.8738 25.4667 98.8005 25.0667 98.8005 24.6V18.58H97.4205V16.52H98.8005V13.12H101.48V16.52H103.68V18.58H101.48V23.7C101.48 24.0733 101.574 24.34 101.76 24.5C101.96 24.6467 102.2 24.72 102.48 24.72C102.76 24.72 103.034 24.6733 103.3 24.58C103.567 24.4867 103.78 24.4067 103.94 24.34L104.48 26.46ZM110.462 27.2C109.609 27.2 108.842 27.0533 108.162 26.76C107.482 26.4667 106.902 26.0733 106.422 25.58C105.956 25.0733 105.596 24.4933 105.342 23.84C105.089 23.1867 104.962 22.5 104.962 21.78C104.962 21.0467 105.089 20.3533 105.342 19.7C105.596 19.0467 105.956 18.4733 106.422 17.98C106.902 17.4733 107.482 17.0733 108.162 16.78C108.842 16.4867 109.609 16.34 110.462 16.34C111.316 16.34 112.076 16.4867 112.742 16.78C113.422 17.0733 113.996 17.4733 114.462 17.98C114.942 18.4733 115.309 19.0467 115.562 19.7C115.816 20.3533 115.942 21.0467 115.942 21.78C115.942 22.5 115.816 23.1867 115.562 23.84C115.309 24.4933 114.949 25.0733 114.482 25.58C114.016 26.0733 113.442 26.4667 112.762 26.76C112.082 27.0533 111.316 27.2 110.462 27.2ZM107.722 21.78C107.722 22.2467 107.789 22.6733 107.922 23.06C108.069 23.4333 108.262 23.76 108.502 24.04C108.756 24.32 109.049 24.54 109.382 24.7C109.716 24.8467 110.076 24.92 110.462 24.92C110.849 24.92 111.209 24.8467 111.542 24.7C111.876 24.54 112.162 24.32 112.402 24.04C112.656 23.76 112.849 23.4267 112.982 23.04C113.129 22.6533 113.202 22.2267 113.202 21.76C113.202 21.3067 113.129 20.8867 112.982 20.5C112.849 20.1133 112.656 19.78 112.402 19.5C112.162 19.22 111.876 19.0067 111.542 18.86C111.209 18.7 110.849 18.62 110.462 18.62C110.076 18.62 109.716 18.7 109.382 18.86C109.049 19.02 108.756 19.24 108.502 19.52C108.262 19.8 108.069 20.1333 107.922 20.52C107.789 20.9067 107.722 21.3267 107.722 21.78Z" fill="white"/>
<path d="M129.131 28.84C129.131 29.6 128.865 30.2467 128.331 30.78C127.798 31.3267 127.151 31.6 126.391 31.6H119.291V28.96H126.391C126.471 28.96 126.511 28.92 126.511 28.84V27H120.111C119.351 27 118.698 26.7333 118.151 26.2C117.618 25.6533 117.351 25 117.351 24.24V18.16C117.351 17.4 117.618 16.7533 118.151 16.22C118.698 15.6733 119.351 15.4 120.111 15.4H126.391C127.151 15.4 127.798 15.6733 128.331 16.22C128.865 16.7533 129.131 17.4 129.131 18.16V28.84ZM120.111 24.38H126.391C126.471 24.38 126.511 24.3333 126.511 24.24V18.16C126.511 18.0667 126.471 18.02 126.391 18.02H120.111C120.018 18.02 119.971 18.0667 119.971 18.16V24.24C119.971 24.3333 120.018 24.38 120.111 24.38ZM133.495 15.4H139.755C140.515 15.4 141.162 15.6733 141.695 16.22C142.242 16.7533 142.515 17.4 142.515 18.16V24.24C142.515 25 142.242 25.6533 141.695 26.2C141.162 26.7333 140.515 27 139.755 27H133.495C132.735 27 132.082 26.7333 131.535 26.2C131.002 25.6533 130.735 25 130.735 24.24V18.16C130.735 17.4 131.002 16.7533 131.535 16.22C132.082 15.6733 132.735 15.4 133.495 15.4ZM139.755 18.02H133.495C133.402 18.02 133.355 18.0667 133.355 18.16V24.24C133.355 24.3333 133.402 24.38 133.495 24.38H139.755C139.848 24.38 139.895 24.3333 139.895 24.24V18.16C139.895 18.0667 139.848 18.02 139.755 18.02ZM153.203 11.6H155.823V27H146.783C146.023 27 145.369 26.7333 144.823 26.2C144.289 25.6533 144.023 25 144.023 24.24V18.16C144.023 17.4 144.289 16.7533 144.823 16.22C145.369 15.6733 146.023 15.4 146.783 15.4H153.203V11.6ZM146.783 24.38H153.063C153.156 24.38 153.203 24.3333 153.203 24.24V18.16C153.203 18.0667 153.156 18.02 153.063 18.02H146.783C146.703 18.02 146.663 18.0667 146.663 18.16V24.24C146.663 24.3333 146.703 24.38 146.783 24.38ZM169.642 18.16V18.66H167.022V18.16C167.022 18.0667 166.976 18.02 166.882 18.02H160.622C160.529 18.02 160.482 18.0667 160.482 18.16V19.76C160.482 19.84 160.529 19.88 160.622 19.88H166.882C167.656 19.88 168.309 20.1533 168.842 20.7C169.376 21.2333 169.642 21.88 169.642 22.64V24.24C169.642 25 169.376 25.6533 168.842 26.2C168.309 26.7333 167.656 27 166.882 27H160.622C159.862 27 159.209 26.7333 158.662 26.2C158.129 25.6533 157.862 25 157.862 24.24V23.74H160.482V24.24C160.482 24.3333 160.529 24.38 160.622 24.38H166.882C166.976 24.38 167.022 24.3333 167.022 24.24V22.64C167.022 22.56 166.976 22.52 166.882 22.52H160.622C159.862 22.52 159.209 22.2533 158.662 21.72C158.129 21.1733 157.862 20.52 157.862 19.76V18.16C157.862 17.4 158.129 16.7533 158.662 16.22C159.209 15.6733 159.862 15.4 160.622 15.4H166.882C167.656 15.4 168.309 15.6733 168.842 16.22C169.376 16.7533 169.642 17.4 169.642 18.16Z" fill="url(#paint6_linear_4_955)"/>
<defs>
<linearGradient id="paint0_linear_4_955" x1="26.0855" y1="9" x2="14.436" y2="22.2415" gradientUnits="userSpaceOnUse">
<stop stop-color="#F4E07F"/>
<stop offset="0.589205" stop-color="#E1A93C"/>
<stop offset="0.994767" stop-color="#E1A93C"/>
</linearGradient>
<linearGradient id="paint1_linear_4_955" x1="19.7927" y1="9" x2="8.11381" y2="21.9911" gradientUnits="userSpaceOnUse">
<stop stop-color="#F4E07F"/>
<stop offset="0.589205" stop-color="#E1A93C"/>
<stop offset="0.994767" stop-color="#E1A93C"/>
</linearGradient>
<linearGradient id="paint2_linear_4_955" x1="26.0888" y1="21.4902" x2="19.8429" y2="32.7285" gradientUnits="userSpaceOnUse">
<stop stop-color="#F4E07F"/>
<stop offset="0.589205" stop-color="#E1A93C"/>
<stop offset="0.994767" stop-color="#E1A93C"/>
</linearGradient>
<linearGradient id="paint3_linear_4_955" x1="19.7927" y1="21.4902" x2="13.5047" y2="32.6601" gradientUnits="userSpaceOnUse">
<stop stop-color="#F4E07F"/>
<stop offset="0.589205" stop-color="#E1A93C"/>
<stop offset="0.994767" stop-color="#E1A93C"/>
</linearGradient>
<linearGradient id="paint4_linear_4_955" x1="26.0856" y1="16.5811" x2="22.2037" y2="25.8742" gradientUnits="userSpaceOnUse">
<stop stop-color="#F4E07F"/>
<stop offset="0.589205" stop-color="#E1A93C"/>
<stop offset="0.994767" stop-color="#E1A93C"/>
</linearGradient>
<linearGradient id="paint5_linear_4_955" x1="19.7926" y1="16.5811" x2="15.9107" y2="25.8743" gradientUnits="userSpaceOnUse">
<stop stop-color="#F4E07F"/>
<stop offset="0.589205" stop-color="#E1A93C"/>
<stop offset="0.994767" stop-color="#E1A93C"/>
</linearGradient>
<linearGradient id="paint6_linear_4_955" x1="171" y1="8" x2="167.813" y2="47.5551" gradientUnits="userSpaceOnUse">
<stop stop-color="#F4E07F"/>
<stop offset="0.589205" stop-color="#E1A93C"/>
<stop offset="0.994767" stop-color="#E1A93C"/>
</linearGradient>
</defs>
</svg>
